HIERARCHY
ROOT Hips
{
	OFFSET -14.64140 90.27770 -84.91600
	CHANNELS 6 Xposition Yposition Zposition Zrotation Xrotation Yrotation
	JOINT Spine
	{
		OFFSET 0.00000 13.20850 -1.60436
		CHANNELS 3 Zrotation Xrotation Yrotation
		JOINT Spine1
		{
			OFFSET 0.00000 8.61716 0.00000
			CHANNELS 3 Zrotation Xrotation Yrotation
			JOINT Spine2
			{
				OFFSET 0.00000 8.61717 0.00000
				CHANNELS 3 Zrotation Xrotation Yrotation
				JOINT Spine3
				{
					OFFSET 0.00000 8.61717 0.00000
					CHANNELS 3 Zrotation Xrotation Yrotation
					JOINT Neck
					{
						OFFSET 0.00000 11.07920 1.10792
						CHANNELS 3 Zrotation Xrotation Yrotation
						JOINT Neck1
						{
							OFFSET 0.00000 7.08032 0.00000
							CHANNELS 3 Zrotation Xrotation Yrotation
							JOINT Head
							{
								OFFSET 0.00000 7.08031 0.00000
								CHANNELS 3 Zrotation Xrotation Yrotation
								End site
								{
									OFFSET 0.00000 0.00000 0.00000
								}
							}
						}
					}
					JOINT RightShoulder
					{
						OFFSET -0.01000 7.91373 5.19711
						CHANNELS 3 Zrotation Xrotation Yrotation
						JOINT RightArm
						{
							OFFSET -18.41580 0.00000 0.00000
							CHANNELS 3 Zrotation Xrotation Yrotation
							JOINT RightForeArm
							{
								OFFSET -29.11090 0.00000 0.00000
								CHANNELS 3 Zrotation Xrotation Yrotation
								JOINT RightHand
								{
									OFFSET -24.65040 0.00000 0.00000
									CHANNELS 3 Zrotation Xrotation Yrotation
									JOINT RightHandThumb1
									{
										OFFSET -5.35114 -0.85590 3.97906
										CHANNELS 3 Zrotation Xrotation Yrotation
										JOINT RightHandThumb2
										{
											OFFSET -4.52789 0.00000 0.00000
											CHANNELS 3 Zrotation Xrotation Yrotation
											JOINT RightHandThumb3
											{
												OFFSET -2.46976 0.00000 0.00000
												CHANNELS 3 Zrotation Xrotation Yrotation
												End site
												{
													OFFSET 0.00000 0.00000 0.00000
												}
											}
										}
									}
									JOINT RightHandIndex1
									{
										OFFSET -14.26970 0.00000 2.88139
										CHANNELS 3 Zrotation Xrotation Yrotation
										JOINT RightHandIndex2
										{
											OFFSET -5.48836 0.00000 0.00000
											CHANNELS 3 Zrotation Xrotation Yrotation
											JOINT RightHandIndex3
											{
												OFFSET -3.01859 0.00000 0.00000
												CHANNELS 3 Zrotation Xrotation Yrotation
												End site
												{
													OFFSET 0.00000 0.00000 0.00000
												}
											}
										}
									}
									JOINT RightHandMiddle1
									{
										OFFSET -14.26970 0.00000 -0.09147
										CHANNELS 3 Zrotation Xrotation Yrotation
										JOINT RightHandMiddle2
										{
											OFFSET -6.17441 0.00000 0.00000
											CHANNELS 3 Zrotation Xrotation Yrotation
											JOINT RightHandMiddle3
											{
												OFFSET -3.56743 0.00000 0.00000
												CHANNELS 3 Zrotation Xrotation Yrotation
												End site
												{
													OFFSET 0.00000 0.00000 0.00000
												}
											}
										}
									}
									JOINT RightHandRing1
									{
										OFFSET -12.69180 0.00000 -3.06433
										CHANNELS 3 Zrotation Xrotation Yrotation
										JOINT RightHandRing2
										{
											OFFSET -5.62556 0.00000 0.00000
											CHANNELS 3 Zrotation Xrotation Yrotation
											JOINT RightHandRing3
											{
												OFFSET -3.56744 0.00000 0.00000
												CHANNELS 3 Zrotation Xrotation Yrotation
												End site
												{
													OFFSET 0.00000 0.00000 0.00000
												}
											}
										}
									}
									JOINT RightHandPinky1
									{
										OFFSET -11.11390 0.00000 -6.03719
										CHANNELS 3 Zrotation Xrotation Yrotation
										JOINT RightHandPinky2
										{
											OFFSET -4.52789 0.00000 0.00000
											CHANNELS 3 Zrotation Xrotation Yrotation
											JOINT RightHandPinky3
											{
												OFFSET -2.46976 0.00000 0.00000
												CHANNELS 3 Zrotation Xrotation Yrotation
												End site
												{
													OFFSET 0.00000 0.00000 0.00000
												}
											}
										}
									}
								}
							}
						}
					}
					JOINT LeftShoulder
					{
						OFFSET 0.01000 7.91373 5.19711
						CHANNELS 3 Zrotation Xrotation Yrotation
						JOINT LeftArm
						{
							OFFSET 18.41580 0.00000 0.00000
							CHANNELS 3 Zrotation Xrotation Yrotation
							JOINT LeftForeArm
							{
								OFFSET 29.11090 0.00000 0.00000
								CHANNELS 3 Zrotation Xrotation Yrotation
								JOINT LeftHand
								{
									OFFSET 24.65040 0.00000 0.00000
									CHANNELS 3 Zrotation Xrotation Yrotation
									JOINT LeftHandThumb1
									{
										OFFSET 5.35114 -0.85590 3.97906
										CHANNELS 3 Zrotation Xrotation Yrotation
										JOINT LeftHandThumb2
										{
											OFFSET 4.52789 0.00000 0.00000
											CHANNELS 3 Zrotation Xrotation Yrotation
											JOINT LeftHandThumb3
											{
												OFFSET 2.46977 0.00000 0.00000
												CHANNELS 3 Zrotation Xrotation Yrotation
												End site
												{
													OFFSET 0.00000 0.00000 0.00000
												}
											}
										}
									}
									JOINT LeftHandIndex1
									{
										OFFSET 14.26970 0.00000 2.88139
										CHANNELS 3 Zrotation Xrotation Yrotation
										JOINT LeftHandIndex2
										{
											OFFSET 5.48836 0.00000 0.00000
											CHANNELS 3 Zrotation Xrotation Yrotation
											JOINT LeftHandIndex3
											{
												OFFSET 3.01859 0.00000 0.00000
												CHANNELS 3 Zrotation Xrotation Yrotation
												End site
												{
													OFFSET 0.00000 0.00000 0.00000
												}
											}
										}
									}
									JOINT LeftHandMiddle1
									{
										OFFSET 14.26970 0.00000 -0.09147
										CHANNELS 3 Zrotation Xrotation Yrotation
										JOINT LeftHandMiddle2
										{
											OFFSET 6.17440 0.00000 0.00000
											CHANNELS 3 Zrotation Xrotation Yrotation
											JOINT LeftHandMiddle3
											{
												OFFSET 3.56744 0.00000 0.00000
												CHANNELS 3 Zrotation Xrotation Yrotation
												End site
												{
													OFFSET 0.00000 0.00000 0.00000
												}
											}
										}
									}
									JOINT LeftHandRing1
									{
										OFFSET 12.69180 0.00000 -3.06433
										CHANNELS 3 Zrotation Xrotation Yrotation
										JOINT LeftHandRing2
										{
											OFFSET 5.62556 0.00000 0.00000
											CHANNELS 3 Zrotation Xrotation Yrotation
											JOINT LeftHandRing3
											{
												OFFSET 3.56744 0.00000 0.00000
												CHANNELS 3 Zrotation Xrotation Yrotation
												End site
												{
													OFFSET 0.00000 0.00000 0.00000
												}
											}
										}
									}
									JOINT LeftHandPinky1
									{
										OFFSET 11.11390 0.00000 -6.03719
										CHANNELS 3 Zrotation Xrotation Yrotation
										JOINT LeftHandPinky2
										{
											OFFSET 4.52789 0.00000 0.00000
											CHANNELS 3 Zrotation Xrotation Yrotation
											JOINT LeftHandPinky3
											{
												OFFSET 2.46976 0.00000 0.00000
												CHANNELS 3 Zrotation Xrotation Yrotation
												End site
												{
													OFFSET 0.00000 0.00000 0.00000
												}
											}
										}
									}
								}
							}
						}
					}
					JOINT pCube4
					{
						OFFSET 0.00000 10.91090 1.10792
						CHANNELS 3 Zrotation Xrotation Yrotation
						End site
						{
							OFFSET 0.00000 0.00000 0.00000
						}
					}
				}
			}
		}
	}
	JOINT RightUpLeg
	{
		OFFSET -9.98441 0.00000 0.00000
		CHANNELS 3 Zrotation Xrotation Yrotation
		JOINT RightLeg
		{
			OFFSET 0.00000 -42.11790 0.00000
			CHANNELS 3 Zrotation Xrotation Yrotation
			JOINT RightFoot
			{
				OFFSET 0.00000 -45.00020 -0.00001
				CHANNELS 3 Zrotation Xrotation Yrotation
				JOINT RightForeFoot
				{
					OFFSET 0.00000 -3.74820 0.00000
					CHANNELS 3 Zrotation Xrotation Yrotation
					JOINT RightToeBase
					{
						OFFSET 0.00000 0.06325 14.43120
						CHANNELS 3 Zrotation Xrotation Yrotation
						End site
						{
							OFFSET 0.00000 0.00000 0.00000
						}
					}
				}
			}
		}
	}
	JOINT LeftUpLeg
	{
		OFFSET 9.98441 0.00000 0.00000
		CHANNELS 3 Zrotation Xrotation Yrotation
		JOINT LeftLeg
		{
			OFFSET 0.00000 -42.11800 0.00000
			CHANNELS 3 Zrotation Xrotation Yrotation
			JOINT LeftFoot
			{
				OFFSET 0.00000 -45.00070 0.00000
				CHANNELS 3 Zrotation Xrotation Yrotation
				JOINT LeftForeFoot
				{
					OFFSET 0.00000 -3.74824 0.00000
					CHANNELS 3 Zrotation Xrotation Yrotation
					JOINT LeftToeBase
					{
						OFFSET 0.00000 0.06325 14.43110
						CHANNELS 3 Zrotation Xrotation Yrotation
						End site
						{
							OFFSET 0.00000 0.00000 0.00000
						}
					}
				}
			}
		}
	}
}
MOTION
Frames: 4
Frame Time: 0.050000
-0.017279951187641928 0.008643901597544202 -0.010393638291233034 -0.028630357074585663 0.007894226471235074 0.003754230438002881 5.1472555054494 6.617237499338199 -1.9153331249698093 -1.0126512835094144 4.153063631261277 0.45717205667598093 -0.6125649367448035 -0.556540472047475 1.0219758406391584 -0.11140866675310888 0.10076295230588594 -0.27237128299145763 -0.42448521387788846 14.092894027832942 -1.4037155988617969 -0.3974527889062922 -1.8315038227553735 -4.027711381846192 0.2536237505217332 -19.66802066881374 -0.33654528800334843 -12.629869849877926 4.007089053746418 -17.421878486285042 77.34789123863442 -6.538277053736963 15.23273000441898 10.233280491667632 -5.05862035100411 70.63951982936311 2.098145306433395 0.17488886839948872 0.09516357631928576 4.5189530129848645 -0.14912372076525499 -1.6042143983488357 0.036352762006415976 -0.00830936177261609 -56.204894264951314 0.020658813871775206 0.017824058469944448 -56.2594577537278 -38.806352504641985 0.00559421892937049 0.005100527978876088 0.01817976473716516 0.01148543430470013 0.04771100070933273 -0.03547485992175053 -0.016060200363471028 -0.014911030277436982 -36.710813639726865 -0.03157357308440239 0.00972365831708974 -0.0013377994613236867 0.014914425648134711 -0.011453996235522321 0.005018588266092043 0.043718491844265045 -0.019535239932627936 -19.725383817115556 -0.005156220972088925 -0.025808113571920286 -0.015668275095759177 0.043896283618884376 -0.049717753651012137 -0.024134644627318087 -0.03656553958955452 0.04056843865508924 24.05104848615003 0.044392321167269884 0.0009105433946888586 28.907386614761958 0.04436898560585297 -0.0027574704397995663 28.881884587187365 0.01705513059656725 -0.04979644926572488 12.146274578375863 2.654348284159224 14.907936249650934 -71.9147796317051 7.589177373823612 -20.731026103651622 -3.8730507798428673 -7.366092022604014 -61.94635126189735 -4.499723740361015 2.483694789756317 -3.662886598571758 -0.46391819289552794 0.06393227039579089 -8.11280017840233 -0.011873363225532214 -0.024656681680545724 44.54665814347858 0.03704183447914845 -0.046426403900977554 44.532869533217074 12.49049336905047 -0.005029524919192779 0.04487365475262666 -0.003604640610634419 -0.012315532809673955 -0.033897290751906596 0.009877844976023358 0.02430195793880533 -0.018753646041862478 11.075193122258037 -0.03531982067979199 0.00711047579286749 0.016455803337643186 -0.008741291026509753 -0.04995919841187314 0.0445696225642431 0.015055077639460982 0.002519768740423221 4.795441077209958 -0.04450461165310583 0.03311288878237794 0.005819866497406451 0.042533583374589866 0.003304592746274427 0.025474145101528192 0.015909845039594618 -0.04232991678723437 -5.566003459183242 0.028755573875638166 -0.016879860401543826 -6.749965808830972 -0.023002301326344756 0.01407455008008564 -6.708384317135935 0.042238966355718444 0.020807924432565267 0.011955233536597602 -0.017463419976761933 0.026256239854694476 8.081299751328784 3.481129240393964 -19.189438687512723 -0.011599130803941716 10.371533833582653 -0.020266351133117814 -5.670909706170685 -15.678714628174449 3.176855893064588 0.027368995668462594 -0.00810122411369988 0.031166954547021113 0.024388076583725708 4.685308666497306 -0.029444040249702482 12.503600658278087 -8.247410452369433 6.864577132214798 0.04797614270116089 46.3713237760106 0.0036662634513768095 -4.360602373265051 -14.762262993564415 -3.835220329084669 0.0029696529244818974 0.036084251700171495 -0.03505125483568085 -0.039733574451696306 -10.718124558575434 0.03212102652554046 
0.02745100826930262 -0.003799292976178244 0.015716407611794984 -0.00413962907858989 -0.017232909739054007 0.010005251913224386 5.111694936721817 6.693465468185649 -1.8633588279014894 -1.0138903583550491 4.209608062580779 0.4514582029966685 -0.6762295669721916 -0.4872253350709008 1.0351302706687404 0.03399206128822554 0.13060516279678652 -0.23299938970810077 -0.4195399937561211 14.013755927606587 -1.524100947261884 -0.3868268112091939 -1.8128440104693961 -4.385917738600412 0.27269501899250637 -19.655802868880823 -0.40293314883020914 -12.466638092730909 3.898487808650157 -17.482874841578447 76.07391463219986 -5.406729712440742 14.851694285154368 11.668680987809251 -4.917363412335115 71.71216351348873 2.7774123896483203 0.09055443946340189 -0.08822570573171641 4.506290551244072 -0.11582781844637427 -1.6165245036385805 0.01919807079841742 -0.04504783647903365 -56.27814753834261 -0.007697934697482434 -0.032897786535614815 -56.239526626114085 -38.810977301624916 -0.03466661220799679 -0.035798677209750204 0.015907314194692 0.04671989935431586 -0.032654469202484555 0.01567952120176775 0.04282379373217766 -0.003869197596805982 -36.70964737679747 -0.012599656461560966 0.007966476566274664 -0.016479474418608926 -0.011101813860976226 0.025400787521833283 0.044914635564414294 0.012796612764202896 0.043170349176847665 -19.772740019807355 0.010473221164917315 0.04477361817073646 0.007616688349481137 0.025885890760687834 -0.0019044071702351212 -0.007950554395310437 0.00495902658835546 -0.03611625644675646 24.083962963934646 0.039564855921075094 -0.0020965622594025135 28.83782525511864 -0.018292432983343713 0.02201492363989637 28.850126526711325 -0.026211997607342167 0.01594273802585261 11.901423324774317 2.5107519653140504 14.983822808959035 -71.06694053657337 7.861106647139221 -20.231689977234616 -5.113870401540368 -7.091407214148817 -63.048157877122016 -5.174209180202427 2.226121696242569 -3.4305179777641004 -0.4542275415644712 0.04976281745631385 -8.171940334771714 -0.021706710711937603 0.007302014570047866 44.571025273473715 0.02738021816828694 0.007528454946919231 44.588078865160014 12.459507649894157 0.006402190245774765 0.028076687712104816 -0.0231658627648166 -0.01880207500509975 -0.02723863012399533 -0.01444721174024405 -0.0063499933257261465 0.030737113566521604 11.102357061982817 -0.0245992330897371 -0.02497616834801836 -0.04699126289762427 -0.00029485966774580734 0.023206787059324625 0.03802061090247677 -0.003874506950738153 0.025706741474958012 4.809447211503662 -0.034248907812558085 -0.020943223123963395 0.021697627037137793 0.010675852422928908 -0.017671127514307747 0.012646644386233525 -0.004614314106163109 0.013730103545731743 -5.635681714826731 0.047831406591653455 0.03802171886803304 -6.699825492420556 0.039478812237943264 -0.013395567046361566 -6.688106155917443 0.014588486657301728 0.030825874644385357 -0.04027622851488914 0.008006057979508381 -0.033850763599690886 8.044633452733837 3.5295477693295254 -19.214861354280394 -0.04315944173102728 10.389061556167224 0.03029618983633753 -5.61920939912991 -15.648331451759304 3.1612397544783954 -0.0003125692034888163 0.001441911491074324 -0.04727540870303058 0.01148944565592445 4.677369258737765 0.0010558933656262318 12.497271086420655 -8.22219027423953 6.897553343006284 -0.018317505299283433 46.39656160320072 -0.03076596746377206 -4.364320410716029 -14.744709614699245 -3.8099142585212205 -0.015195650349599027 0.007062303205461658 0.008135462190274062 -0.008148382549191762 -10.792392541026649 -0.012438543163504397 
-0.010180300880164986 -0.04202347920998168 0.012667722161417467 -0.018756387254774267 -0.00448227193771624 0.009348161686907065 5.066427167763678 6.730539259899228 -1.824272012570497 -1.0751913030398237 4.275214615413475 0.40268538878945714 -0.6343745018770252 -0.47944095616040794 1.0159560967729027 0.23644820358915997 0.1403068970327968 -0.28788105904713074 -0.2967448194339418 14.069703836298746 -1.7504768815081402 -0.43396904107937756 -1.8640174625625894 -5.139961430070635 0.34986340203388516 -19.658835883545013 -0.433498265033582 -12.294302863568987 3.734612876932112 -17.653448330080277 74.89650768852684 -4.1089749613300715 14.697967476239322 12.41899997260054 -5.296853909139352 72.13237262870365 3.292960670409905 0.10270766479152299 -0.2030081604474734 4.566733622108608 -0.08142977389360626 -1.5439694774556814 -0.021446333008929435 -0.03582590144132465 -56.228921274092315 -0.016635629511524544 0.015743104710288065 -56.2042407153293 -38.74271021477714 -0.012739077923876161 0.030321226255124293 -0.022958677881560356 -0.03226196001483893 0.027797010300288957 0.014640903689698035 0.047346747092449105 0.03293032802039556 -36.68931019063181 -0.019415000343190797 0.02920444165233905 0.021670605658587368 0.030639491881939596 -0.0005295988970267675 0.03370481029629193 -0.026036286185138653 -0.038707419622994996 -19.717297615869104 -0.02990044876639015 -0.03684037706178995 -0.028273092615542294 0.027136479562040496 -0.007577270706724315 0.03957290203122627 -0.013616491146459178 0.004180380314776578 24.037236093789414 -0.024880691531797276 -0.03256593411313229 28.823683491016176 -0.02564888453087026 0.03823795212478276 28.86688896036702 0.035364416825936336 0.004221289194938289 11.610623908803834 2.510859744587974 15.069165181202614 -70.59728634187725 7.984321592702787 -19.58374458408887 -6.215464947439716 -7.657274620207226 -63.51696940908686 -5.735971154331055 1.934649513093219 -3.0874483985535037 -0.439684770579488 0.05343023211953147 -8.112065495204014 0.0005609993420199712 0.013987018172799775 44.56890750411607 -0.0003282054395975464 0.04521279471621386 44.56518211091771 12.473563331970785 -0.019209309578236723 0.03520771437832587 -0.005252169850420006 -0.02459526295467266 -0.00040798138046337513 0.044489755242192466 0.004896715300958419 0.00896580028377608 11.09565199226244 -0.01515782278834675 -0.017825244186798303 -0.03418726012463082 -0.03412917736105687 -0.027857862463561 -0.014167253441877737 0.0004033397316846465 -0.01236976610849637 4.785945589454531 -0.019454666392136073 -0.004219901467217393 -0.010755265039103106 0.04191107801390853 0.0016713476754793447 0.012905330397309782 -0.0115748668099928 -0.016938346399733958 -5.587041674151685 0.02730270308275907 -0.03705236601164312 -6.715513845780113 -0.046237466301676605 -0.029722044685992852 -6.761801565453393 0.0034712964297494773 0.012407939893046343 0.006807526010666134 -0.04806971583569354 0.04955108776082631 8.020886894593655 3.454730057928442 -19.18387513773634 0.023735484775328223 10.380079494495764 -0.0017562176888023112 -5.655943385519802 -15.705565605403917 3.1550683724759163 0.007767629110066404 -0.026364801354311653 0.005023275731660112 -0.02805021148200181 4.653640359513747 -0.001237078275077671 12.417640551350251 -8.236111831615355 6.864204483086522 0.007317609926745626 46.370811498899805 -0.01760650048189659 -4.340586828297844 -14.773276417460055 -3.787145273807116 0.030305670911049982 -0.02015368320704957 -0.02528224573803808 0.009063857388018313 -10.712517557315742 -0.0011059816287832935 
0.03728545354779254 -0.028646422533401897 0.03024663335629224 -0.02624500923068418 -0.002975440242018603 -0.0413667914258858 5.131366791069187 6.732413908474694 -1.8535591453091 -1.0761831753075917 4.266133848981935 0.39967505059635167 -0.6935445461387182 -0.44391169436448147 1.1131261249542381 0.3746462876760323 0.09872033154044345 -0.24908291184705203 -0.21161655576244962 14.014452348974284 -2.152479895328494 -0.4418571256822233 -1.8360885052397227 -6.172829948332687 0.46260038277556237 -19.637669162667592 -0.5470434918641857 -12.142465100930595 3.7352467826956213 -17.7814171400389 73.98542218987849 -3.3443642056337444 14.470727548163559 12.579323528982416 -6.17103259778001 72.207134669622 3.9818322466826315 0.03187731353856613 -0.5353111308853263 4.498782337995972 -0.16992841839719675 -1.6260954468521496 0.0066061320303720614 -0.026483905407457056 -56.25019269208759 0.044070171564551806 0.004125280806969841 -56.27848891736884 -38.8031412445894 -0.008381019415931987 -0.04025460074578052 0.00142059806570572 -0.00720330222235477 -0.03144003479148113 -0.034494548562265755 -0.037967347315372636 -0.018152793474326977 -36.726022202751594 -0.0025772735627519455 -0.014763217123633312 -0.0028695807758173787 -0.004056352465837407 0.02776689167235114 0.019819647404136578 0.033945727620030015 -0.03515097366771781 -19.768178282935125 0.03282512629063885 -0.02573171947346539 -0.008250379162219075 0.017038390086166085 -0.006105022727387714 -0.02962767916728591 0.04691277353033686 -0.040397780940554656 24.078871156118147 0.049955880020029535 0.005823423775587272 28.888936550561592 -0.015036878499087178 -0.036072361092291505 28.889061036846954 -0.010189745124420857 0.008502493716603466 11.232545997876459 2.413981787872967 15.158297361774784 -70.24012326680686 7.7035838886097245 -18.464262242722363 -7.343863259459025 -8.955236947751171 -63.39560383380092 -6.568978299030234 1.4379976317908671 -2.6586973152839817 -0.4576032320690495 0.052109865753687305 -8.141165405183159 -0.00399327522339155 -0.015892978619514914 44.53048663534037 -0.04362666407087213 0.04244725774454793 44.5689969362604 12.46672566880801 0.004471026808846645 0.010272134446190694 -0.018844632905662115 0.0037056113749997007 -0.0286164502624399 0.048396456010103235 0.02634162190900259 0.03443123117708324 11.128588053154198 0.008259437621325675 -0.03189613340744893 0.02566177216528943 0.03263428770922078 -0.023098173869125625 -0.02341292122824093 0.024428526141484986 -0.03004515303823506 4.7899104336868366 0.021985150952807328 0.014476322467891063 -0.046009635884886824 0.04600084324748466 0.0340671133622203 0.018349671225774963 0.03075157852067017 0.005396719117886544 -5.589078490667186 0.01298412009597394 0.004113622746860342 -6.731807349045259 0.024997021568120375 -0.03353891096211397 -6.698657941500359 0.03347234021301352 0.019737045314733238 -0.002127343353086399 0.043635375648538505 -0.008538283227313485 8.06133874004356 3.5020239053976674 -19.23335578361244 -0.0007429050410495116 10.4112637529889 0.03257601674492902 -5.621811153577857 -15.610556497327103 3.1735462807469186 -0.009019073694016506 0.017705618870014393 -0.02595280284871043 -0.01311607782411292 4.650976242653555 -0.033673176594680373 12.425859119419686 -8.24563619746081 6.928849913979079 0.015148024484023257 46.411268577851224 -0.03670048549883344 -4.2789051065840304 -14.772773158794992 -3.813790993446637 0.0015134557640784443 0.04191491317637964 -0.01847513774581064 -0.03310656266344743 -10.785670513258252 0.02797149287503515 
